#!OML:ASF E:/inclinewalkrobotboard/Project1/Captureday1/Session1/subject1.ASF
:FULLY-SPECIFIED
:DEGREES
276
root 0 0 0 -6.261347401887235 19.38996954442059 15.027082493398828
lowerback -2.5027106643129557 -5.241500477022891 -8.665244499549903
upperback -7.100665858649604 -6.540853665581986 5.455880129444147
thorax -6.200271710552507 -1.883763588407399 10.667019627181425
lowerneck -5.876093703598643 -8.2422653501019 -6.250343625172816
upperneck 30.12607944379263 -10.385876596213691 0.8182587336430824
head 11.102502333353039 -5.37394613744749 -0.025576554356786296
rclavicle -8.750002745655855E-15 6.683146517745272E-15
rhumerus 151.23419729574573 10.465867668573246 -201.00987085502487
rradius 13.407968652495908
rwrist 87.19019290543741
rhand -16.65717877965192 8.930316847119787
rfingers 7.125020000000005
rthumb 9.524356347648812 -20.74710498633
lclavicle 1.5378981166894162E-15 2.961076068759926E-15
lhumerus 66.13360590091229 35.807477582043305 17.67885996977238
lradius 28.88739871616867
lwrist -25.774022670108256
lhand -19.18082509205392 19.145232341184503
lfingers 7.125019999999967
lthumb 7.091002515138509 49.7955750333812
rfemur 154.92799628997102 -211.09456253451282 -181.77729968162436
rtibia 52.19753972567087
rfoot -81.48663328583172 -12.01811240433921
rtoes 53.62004801614465
lfemur -87.10706594834473 18.392998830551917 -62.27426137159199
ltibia 70.37776632591752
lfoot 6.297811024310921 34.652423768414096
ltoes -0.2816533286054277
277
root 0 0 0 -7.679264116621944 17.462622096017522 16.013082857691458
lowerback -1.8994249163516228 -5.276621234003635 -8.955041310461038
upperback -6.786829228063521 -6.593401142896771 5.185229015994402
thorax -6.27490319463154 -1.8673301337764936 10.534793435585708
lowerneck -6.1392714749976145 -8.085664370905548 -6.091598028977336
upperneck 29.81906236921186 -10.197597064630198 0.931768397441965
head 11.014357830179929 -5.272512286866694 0.008168451688306488
rclavicle -9.524625261989642E-15 6.930989439843228E-15
rhumerus 150.19267094603333 10.857152099196995 -200.4842559377477
rradius 13.810624983364258
rwrist 86.80590916813598
rhand -16.596986609406787 9.124479092022494
rfingers 7.125020000000003
rthumb 9.586363904857642 -20.51593704198201
lclavicle 1.3453746005630266E-15 3.1565923296173905E-15
lhumerus 62.62064227756947 35.22253160462309 19.40155879153118
lradius 28.665145286538582
lwrist -25.540683621300975
lhand -19.794171710159148 18.958383123545428
lfingers 7.125019999999974
lthumb 6.502596488723462 49.6645821040724
rfemur 155.53968259234784 -212.05446883427726 -182.0013222153588
rtibia 54.53382172882375
rfoot -80.10835620837807 -13.173843590987435
rtoes 52.343197284312524
lfemur -86.7335481312806 17.514654180413068 -63.25315805940355
ltibia 69.15225739656012
lfoot 6.200588140388106 35.34919906391633
ltoes -0.6488277014858586
278
root 0 0 0 -8.183533193632542 16.841418531350374 16.350053314712156
lowerback -1.6384418652187014 -5.283403972140567 -9.062686208958626
upperback -6.658924406464267 -6.606069509657959 5.077706460625168
thorax -6.308945136539665 -1.8598615074987526 10.478967471545529
lowerneck -6.244636255824829 -8.013366330108934 -6.020479372668624
upperneck 29.699052432037583 -10.105416835940323 0.954777462974691
head 10.980201460786429 -5.224818767456669 0.015183551427371711
rclavicle -9.972086122978881E-15 7.117850413700999E-15
rhumerus 149.5214217133129 11.078545317392653 -199.58236929553888
rradius 14.393402449493117
rwrist 86.17413567897042
rhand -16.538101085110608 9.27798276175956
rfingers 7.125020000000001
rthumb 9.646650416834351 -20.33006236414413
lclavicle 1.4892305779305406E-15 3.2066610308534234E-15
lhumerus 59.6960285970236 34.54517085921943 20.866972679959897
lradius 28.81999709904953
lwrist -25.25577537511143
lhand -20.24275963901933 18.663920434222234
lfingers 7.125019999999981
lthumb 6.0740005860118345 49.39717625920628
rfemur 156.2867631239713 -212.9660282307756 -182.25338917795128
rtibia 56.849242229782554
rfoot -77.81681914293468 -14.31077907073215
rtoes 51.2263219890629
lfemur -86.40119496080108 16.88480737391403 -63.965478285649766
ltibia 68.04169765443203
lfoot 5.862371091107477 35.96578760652113
ltoes -0.7631318398535019
279
root 0 0 0 -8.357267628270996 16.618945271924797 16.458146571498922
lowerback -1.550475690172377 -5.290064811675991 -9.096979917624028
upperback -6.611765261312398 -6.616544946077967 5.043993163978149
thorax -6.315091832742649 -1.8614811282583406 10.462691446150533
lowerneck -6.284038996694067 -7.987038450490099 -5.995873427197245
upperneck 29.67015833487804 -10.072612579478852 0.9631690280192107
head 10.97435745638259 -5.2076490171632885 0.01805177619067111
rclavicle -1.0189706058954943E-14 7.246577782885549E-15
rhumerus 149.23816402924794 11.180645465986736 -198.48385448896005
rradius 15.109762694571087
rwrist 85.32820333324142
rhand -16.482615963259086 9.391197911658313
rfingers 7.125019999999999
rthumb 9.703148013876126 -20.188746304542253
lclavicle 1.8454475594617863E-15 3.1462375389973508E-15
lhumerus 57.80940812549562 33.78600414088123 21.96902768185157
lradius 29.38699757747567
lwrist -24.854831241618115
lhand -20.48571307779272 18.26030954372533
lfingers 7.125019999999986
lthumb 5.843377549824343 48.9843261171861
rfemur 157.08597669379694 -213.78667158034827 -182.51892430148416
rtibia 59.03956658387038
rfoot -74.77619323270622 -15.466086797030478
rtoes 50.39052302003371
lfemur -86.14556004039787 16.5075146170175 -64.4064382437117
ltibia 67.16724994746562
lfoot 5.450526847644657 36.43691400504318
ltoes -0.7062321656609782
280
root 0 0 0 -8.387210262079854 16.514892947640252 16.471400666755628
lowerback -1.5554151468190507 -5.300326007349252 -9.099010809854295
upperback -6.607045072135347 -6.630779182548959 5.0463986908877585
thorax -6.307659990781785 -1.8689280734138018 10.467832151541025
lowerneck -6.292415675431302 -7.9847336059047205 -5.997766164289939
upperneck 29.679110856264078 -10.072966398375737 0.9785321525841084
head 10.980249752524122 -5.206674845728878 0.023371896736615883
rclavicle -1.036787685497247E-14 7.309872980863148E-15
rhumerus 149.25503208240445 11.223051305544757 -197.27932439841965
rradius 15.926119431828631
rwrist 84.34537523948678
rhand -16.43105508584157 9.481572710756739
rfingers 7.1250199999999975
rthumb 9.755605085491013 -20.072501701300066
lclavicle 2.222380422024835E-15 2.9764767173800592E-15
lhumerus 57.059778277670986 32.958003554533384 22.73612344573252
lradius 30.396559934848902
lwrist -24.299103940468882
lhand -20.49905272032599 17.725269603374386
lfingers 7.12501999999999
lthumb 5.8332014771081475 48.40047087564639
rfemur 157.89690436231768 -214.52629641607672 -182.79646669107177
rtibia 61.20288956031388
rfoot -71.01751685831937 -16.750004196640848
rtoes 49.856661110713816
lfemur -85.96516029516701 16.304629200669503 -64.64575990270646
ltibia 66.53183639705551
lfoot 5.037258974586855 36.770604082039334
ltoes -0.5626105920760782
